Coordinates
version=1
nRows=32
nColumns=12
inDegrees=yes

Units are S.I. units (second, meters, Newtons, ...)
Angles are in degrees

endheader
time	SC_y	SC_z	SC_x	AC_y	AC_z	AC_x	GH_y	GH_z	GH_yy	EL_x	PS_y
       0.0              -31.97          28.59          64.29          37.44          9.019          10.03          109.5          81.09         -100.9          110.7          55.76
   0.04758              -31.98          28.58          64.29          37.44          9.018          10.03          109.5          81.08         -100.8          110.7          55.77
   0.09516              -31.98          28.58          64.29          37.44          9.017          10.03          109.5          81.08         -100.8          110.7          55.78
    0.1427              -31.99          28.58          64.29          37.44          9.016          10.03          109.4          81.07         -100.8          110.7          55.79
    0.1903              -31.99          28.58          64.29          37.44          9.016          10.03          109.4          81.07         -100.8          110.7           55.8
    0.2379              -31.99          28.58           64.3          37.44          9.015          10.03          109.4          81.06         -100.8          110.7          55.81
    0.2855               -32.0          28.58           64.3          37.44          9.014          10.03          109.3          81.05         -100.8          110.6          55.82
    0.3331               -32.0          28.58           64.3          37.44          9.013          10.02          109.3          81.04         -100.7          110.6          55.84
    0.3806              -32.01          28.58           64.3          37.44          9.012          10.02          109.3          81.04         -100.7          110.6          55.85
    0.4282              -32.01          28.57           64.3          37.44          9.011          10.02          109.2          81.03         -100.7          110.6          55.87
    0.4758              -32.02          28.57          64.31          37.44          9.009          10.02          109.2          81.02         -100.7          110.6          55.88
    0.5234              -32.03          28.57          64.31          37.44          9.008          10.02          109.1          81.01         -100.6          110.6           55.9
     0.571              -32.03          28.57          64.31          37.44          9.007          10.02          109.1           81.0         -100.6          110.6          55.92
    0.6186              -32.04          28.56          64.32          37.45          9.005          10.01          109.0          80.99         -100.6          110.6          55.94
    0.6661              -32.05          28.56          64.32          37.45          9.004          10.01          109.0          80.98         -100.5          110.6          55.96
    0.7137              -32.06          28.56          64.32          37.45          9.002          10.01          108.9          80.96         -100.5          110.5          55.99
    0.7613              -32.07          28.56          64.33          37.45            9.0          10.01          108.9          80.95         -100.5          110.5          56.01
    0.8089              -32.08          28.55          64.33          37.45          8.998           10.0          108.8          80.93         -100.4          110.5          56.04
    0.8565              -32.09          28.55          64.33          37.45          8.995          9.999          108.7          80.92         -100.4          110.5          56.07
     0.904               -32.1          28.54          64.34          37.45          8.993          9.995          108.6           80.9         -100.3          110.5          56.11
    0.9516              -32.12          28.54          64.35          37.46           8.99          9.991          108.5          80.88         -100.3          110.5          56.15
    0.9992              -32.13          28.54          64.35          37.46          8.987          9.986          108.4          80.85         -100.2          110.4          56.19
     1.047              -32.15          28.53          64.36          37.46          8.984          9.981          108.3          80.83         -100.1          110.4          56.23
     1.094              -32.17          28.52          64.37          37.46           8.98          9.976          108.1           80.8         -100.0          110.4          56.28
     1.142              -32.19          28.52          64.37          37.47          8.976           9.97          108.0          80.77         -99.95          110.3          56.34
      1.19              -32.21          28.51          64.38          37.47          8.971          9.963          107.8          80.74         -99.85          110.3           56.4
     1.237              -32.24           28.5          64.39          37.47          8.966          9.955          107.6           80.7         -99.74          110.3          56.47
     1.285              -32.27          28.49          64.41          37.48           8.96          9.947          107.4          80.65         -99.62          110.2          56.55
     1.332               -32.3          28.48          64.42          37.48          8.953          9.937          107.2          80.61         -99.48          110.2          56.64
      1.38              -32.34          28.47          64.43          37.49          8.946          9.926          106.9          80.55         -99.32          110.1          56.74
     1.427              -32.38          28.46          64.45          37.49          8.937          9.913          106.6          80.49         -99.14          110.0          56.86
     1.475              -32.43          28.44          64.47           37.5          8.927          9.899          106.3          80.41         -98.93          109.9          56.99
